<svg width="32" height="40" fill="none" xmlns="http://www.w3.org/2000/svg"><g clip-path="url(#clip0_0_3)"><path d="M0 4a4 4 0 014-4h24a4 4 0 014 4v32a4 4 0 01-4 4H4a4 4 0 01-4-4V4z" fill="none"/><path fill-rule="evenodd" clip-rule="evenodd" d="M21.298 15.775v10.538c0 .972-.677 1.684-1.604 1.685-2.049.003-4.097.003-6.146 0-.926 0-1.602-.713-1.602-1.687V15.775h9.352zm-7.003 2.44v7.337h1.325c.208 0 .221 0 .222-.198v-6.902c0-.043.012-.092-.004-.125-.021-.044-.064-.106-.099-.107-.477-.006-.955-.005-1.444-.005zm4.653 0h-1.322c-.21 0-.224 0-.225.195v7.13h1.547v-7.325zM11 14.797v-1.859h.215c.941 0 1.883.004 2.825-.006a.428.428 0 00.277-.131c.208-.217.395-.462.6-.682a.354.354 0 01.232-.113c.983-.008 1.967-.008 2.95 0 .078 0 .172.05.231.113.206.22.392.465.6.682a.43.43 0 00.278.131c.936.01 1.872.006 2.807.006h.228v1.859H11z" fill="#1B4942"/></g><defs><clipPath id="clip0_0_3"><path fill="#fff" d="M0 0h32v40H0z"/></clipPath></defs></svg>